<svg xmlns="http://www.w3.org/2000/svg" width="28" height="27" viewBox="0 0 28 27"><g><g><path fill="none" stroke="#ae2573" stroke-linecap="round" stroke-linejoin="round" stroke-miterlimit="20" stroke-width="2" d="M25.001 20.03v3.59a2.394 2.394 0 0 1-2.61 2.394 23.686 23.686 0 0 1-10.328-3.675 23.339 23.339 0 0 1-7.181-7.18A23.686 23.686 0 0 1 1.208 4.781a2.394 2.394 0 0 1 2.381-2.61h3.59a2.394 2.394 0 0 1 2.395 2.059c.151 1.15.432 2.277.837 3.363.33.875.119 1.861-.538 2.526l-1.52 1.52a19.15 19.15 0 0 0 7.18 7.18l1.52-1.52a2.394 2.394 0 0 1 2.526-.538c1.086.405 2.214.686 3.363.838a2.394 2.394 0 0 1 2.059 2.43zM16.683.975a10.772 10.772 0 0 1 9.515 9.503zm0 4.787a5.984 5.984 0 0 1 4.727 4.728"/></g></g></svg>