<svg xmlns="http://www.w3.org/2000/svg" width="80" height="80" viewBox="0 0 80 80"><g><g clip-path="url(#clip-76476f01-a3cb-4fba-82fd-0308ae0ee517)"><path fill="none" stroke="#fff" stroke-linecap="round" stroke-linejoin="round" stroke-miterlimit="20" stroke-width="3" d="M61.951 51.255c9.764 0 16.18 8.156 16.18 20.946v5.657h-16.31v0L50.947 56.693a24.319 24.319 0 0 1-21.75 0L18.325 77.858v0h35.522v0H2.013v0-5.657c0-12.79 6.423-20.946 16.18-20.946h8.287a5.437 5.437 0 0 0 5.437-5.437A18.314 18.314 0 0 1 23.76 30.58v-7.325c0-21.826 32.623-21.907 32.623 0v6.31c0 13.939-7.403 21.185-15.069 21.185-4.646 0-4.646-5.575 0-5.575 3.433 0 5.104 1.56 7.844 3.43 6.205 4.236 15.615-1.366 15.618-10.163V21.873v0h3.717V35.95H61.06v0-12.301c0-29.117-42.152-29.307-42.152 0v12.3h-7.434v0-14.075 0h3.717v10.528"/></g></g></svg>