<svg xmlns="http://www.w3.org/2000/svg" width="60" height="74" viewBox="0 0 60 74"><g><g clip-path="url(#clip-152b1d6f-4f0a-4526-bd64-f789ccfb8a38)"><path fill="none" stroke="#fff" stroke-linecap="round" stroke-linejoin="round" stroke-miterlimit="20" stroke-width="3" d="M26.2 44.703v0l3.73 4.145v0l6.019-8.288c-1.24-2.319-3.68-3.93-6.457-4.01a8.64 8.64 0 0 0-8.64 8.64c0 5.302 4.3 9.599 9.6 9.599 5.89 0 10.666-4.776 10.666-10.666 0-6.545-5.305-11.85-11.85-11.85-7.273 0-13.012 5.976-13.012 13.249v.04c0 8.032 6.511 14.544 14.543 14.544h22.568v0s-22.608 0 0 0v-39.43 0H2.339v51.027h55.667v0-60.305 0H39.45v0h6.959v0l-2.32-4.64v0h-9.278a4.64 4.64 0 1 0-9.278 0h-9.277v0l-2.32 4.64v0h6.959v0H2.339v4.639h51.028v0"/></g></g></svg>