<svg xmlns="http://www.w3.org/2000/svg" width="76" height="72" viewBox="0 0 76 72"><g><g clip-path="url(#clip-c1d9f754-7fa5-450d-a2e1-bb2391690179)"><path fill="none" stroke="#fff" stroke-miterlimit="20" stroke-width="2" d="M38.928 15.948c1.043 3.029.808 5.042.112 6.075-.636.945-1.624.965-2.254.002-.675-1.031-.878-3.037.192-6.066.289-.816.618-1.594.982-2.333.364.735.688 1.51.968 2.322zm-26.08 24.678c3.376-.302 6.28-1.135 8.65 2.056 1.108 1.493 2.149 3.037 3.268 4.52 2.131 2.827 5.075 2.155 6.276-1.072 1.666-4.473 3.212-8.985 4.806-13.483.708-1.999 2.058-2.144 2.792-.072 1.61 4.549 3.2 9.106 4.836 13.645 1.187 3.29 3.661 3.61 6.166 1.36 5.084-4.568 6.506-4.233 12.241-2.881 3.448.81 6.461 1.352 8.217-2.488 6.938-15.175 5.582-26.156.606-32.814-3.993-5.343-10.69-8.162-17.306-7.56-5.994.493-11.846 3.602-15.449 9.37-3.318-5.18-8.679-8.138-14.284-8.781-6.005-.69-12.08 1.295-16.312 5.658-5.443 5.612-8.087 15.33-3.866 29.334 1.968 6.53 6.03 13.063 11.148 18.665 5.289 5.788 11.714 10.595 18.126 13.39 3.735 1.627 5.412 1.677 9.11-.071a72.686 72.686 0 0 0 12.258-7.378c3.677-2.742 7.068-5.833 9.881-9.14l-.898-.764c-2.745 3.226-6.072 6.255-9.691 8.954a71.487 71.487 0 0 1-12.054 7.258c-3.391 1.603-4.707 1.55-8.133.057-6.26-2.728-12.543-7.432-17.723-13.103-5.006-5.479-8.975-11.852-10.89-18.206C.546 23.555 3.033 14.24 8.203 8.91c3.98-4.104 9.685-5.955 15.33-5.307 5.451.626 10.656 3.58 13.742 8.767a22.513 22.513 0 0 0-1.413 3.197c-1.213 3.433-.913 5.815-.067 7.108 1.088 1.664 3.122 1.652 4.227.011.872-1.294 1.21-3.685.027-7.121a20.618 20.618 0 0 0-1.412-3.2C42 6.596 47.678 3.495 53.497 3.016c6.273-.522 12.461 2.005 16.26 7.088 4.743 6.347 5.993 16.906-.732 31.616-1.465 3.205-4.034 2.492-6.873 1.825-6.216-1.465-7.757-1.828-13.302 3.153-1.87 1.68-3.368 1.605-4.262-.877-1.637-4.538-3.222-9.094-4.832-13.64-1.109-3.13-3.938-2.995-5.024.071-1.591 4.492-3.133 8.998-4.797 13.465-.868 2.334-2.657 2.851-4.225.772-1.117-1.482-2.156-3.022-3.263-4.511-2.767-3.726-5.74-2.883-9.702-2.53z"/></g></g></svg>