<svg xmlns="http://www.w3.org/2000/svg" width="69" height="75" viewBox="0 0 69 75"><g><g clip-path="url(#clip-dc6a21c3-ee95-474b-bd9a-6c3ec10497bc)"><path fill="none" stroke="#fff" stroke-miterlimit="20" stroke-width="2" d="M33.56 71.838s0 0 0 0a20.019 20.019 0 0 1-6.699.486 20.122 20.122 0 0 1-6.589-1.823c-1.948-.912-2.724-2.308-2.731-3.584-.006-1.15.623-2.31 1.69-2.794.918-.415 2.128-.286 3.377.8 3.912 3.39 7.552 5.597 10.952 6.915 0 0 0 0 0 0zm13.806-.183c-3.207.857-6.691 1.074-10.504.152a23.95 23.95 0 0 0 5.364-3.036 22.092 22.092 0 0 0 5.14 2.884zm3.258-.017c3.883-1.558 7.346-3.882 10.486-5.99.358-.24.714-.479 1.214-.811 1.41-.939 2.597-.934 3.426-.425.992.61 1.437 1.86 1.346 2.982-.105 1.302-.93 2.625-2.721 3.247-2.856.99-5.618 1.496-8.248 1.556a21.895 21.895 0 0 1-5.503-.559zM31.388 44.616c-.134-1.331-.218-2.7-.25-4.104-.172-7.522 3.317-12.532 7.777-14.797 3.464-1.76 7.665-1.906 11.136-.086 3.995 2.095 6.962 6.755 6.711 14.184-.075 2.235-1.046 3.596-2.234 4.15a3.04 3.04 0 0 1-2.738-.07c-1.067-.577-1.86-1.847-1.783-3.768.184-4.607-1.759-7.648-4.33-9.058a7.289 7.289 0 0 0-6.884-.073c-2.573 1.354-4.547 4.362-4.453 9.066.039 1.987-.734 4.26-2.952 4.556zm-26.205-2.87c-2.685.896-4.12 3.576-4.101 6.305.012 1.865.703 3.755 2.136 5.107 2.93 2.767 8.352 2.533 11.03-.453 2.254-2.513 2.529-6.627.517-9.366-.87-1.184-2.118-2.088-3.646-2.71-1.717-.676-1.852-1.577-1.857-3.247a1040.53 1040.53 0 0 0-.184-18.133c-.097-4.914 1.376-9.64 5.048-13.048C20.33.443 30.694.678 36.896 6.328c2.599 2.368 4.433 5.734 4.7 10.162.168 2.818-.667 4.708-3.489 5.583-4.399 1.363-7.52 3.588-9.468 6.668-1.942 3.07-2.703 6.968-2.393 11.694.163 2.487 1.643 4.867 4.257 5.169.394 3.32 1.097 6.404 2.072 9.215 1.953 5.628 4.998 10.164 8.845 13.32a22.64 22.64 0 0 1-6.173 3.212c-3.686-1.178-7.67-3.43-11.992-7.176-1.588-1.38-3.186-1.517-4.43-.954-1.426.645-2.28 2.158-2.272 3.7.01 1.622.947 3.373 3.301 4.474a21.113 21.113 0 0 0 6.914 1.912c2.859.28 5.706-.044 8.42-.898 5.139 1.605 9.711 1.19 13.825-.18a22.626 22.626 0 0 0 7.134.956c2.731-.062 5.595-.586 8.55-1.61 2.226-.774 3.253-2.448 3.387-4.104.12-1.494-.505-3.098-1.815-3.903-1.137-.699-2.705-.745-4.492.444-.299.199-.753.504-1.217.815-3.428 2.302-7.254 4.868-11.607 6.346a20.959 20.959 0 0 1-5.917-3.034c3.067-2.494 5.668-5.795 7.508-9.727 1.44-3.079 2.416-6.546 2.785-10.316l-.984-.093c-.357 3.654-1.301 7.011-2.696 9.99-1.813 3.875-4.386 7.11-7.419 9.528-3.795-3.048-6.8-7.487-8.721-13.023-.942-2.715-1.624-5.693-2.012-8.9 2.757-.35 3.88-3.021 3.83-5.557-.084-4.273 1.657-6.977 3.927-8.171a6.286 6.286 0 0 1 5.947.065c2.27 1.245 3.985 3.976 3.818 8.152-.093 2.352.929 3.935 2.303 4.677a4.034 4.034 0 0 0 3.624.095c1.495-.699 2.714-2.35 2.804-5.015.265-7.867-2.935-12.832-7.242-15.09-3.75-1.966-8.294-1.824-12.038.078-4.77 2.423-8.501 7.742-8.32 15.7.032 1.386.113 2.738.243 4.055-2.008-.377-3.034-2.301-3.16-4.214-.296-4.517.418-8.22 2.243-11.105 1.819-2.875 4.759-4.96 8.922-6.25 3.264-1.012 4.38-3.308 4.185-6.586-.284-4.714-2.244-8.306-5.021-10.836-6.578-5.992-17.534-6.222-24.11-.119-3.883 3.604-5.464 8.59-5.362 13.791.148 7.476.168 13.447.184 18.114.007 2.203.34 3.224 2.474 4.165 1.36.554 2.463 1.348 3.22 2.377 1.736 2.365 1.487 5.956-.455 8.122-2.312 2.577-7.088 2.78-9.617.391-1.225-1.155-1.816-2.781-1.827-4.39-.015-2.295 1.155-4.605 3.428-5.364z"/></g></g></svg>