<svg xmlns="http://www.w3.org/2000/svg" width="60" height="78" viewBox="0 0 60 78"><g><g clip-path="url(#clip-f520a5ce-187e-4216-908c-a06bfd344f17)"><path fill="none" stroke="#fff" stroke-miterlimit="20" stroke-width="1.5" d="M45.867 6.935s0 0 0 0 0 0 0 0zm0 0c.154-.027.314-.043.483-.048 2.545-.085 5.907 2.314 6.92 3.569.525.652.41 1.183.152 1.44-.273.273-.785.355-1.313-.075-1.288-1.048-2.868-2.271-4.54-3.566-.566-.438-1.137-.88-1.702-1.32zM30.882 10.42c.12 0 .247.008.38.025 1.452.183 2.6.923 3.071 1.977.326.727.313 1.563-.022 2.426-1.276-.575-2.54-1.16-3.757-1.757-.918-.45-1.388-1.155-1.196-1.796.138-.46.656-.875 1.524-.875zm10.751 7.66c-1.75-1.63-2.552-2.92-1.298-4.701.802-1.14 1.501-2.117 2.178-3.06.565-.79 1.099-1.534 1.629-2.286.208-.296.45-.534.725-.715.706.551 1.427 1.11 2.14 1.662 1.668 1.291 3.243 2.511 4.523 3.552.966.786 1.994.558 2.54.014.57-.568.765-1.613-.086-2.668-1.141-1.414-4.78-4.006-7.664-3.91a3.99 3.99 0 0 0-1.349.267 143.11 143.11 0 0 1-2.97-2.378c-.53-.44-.723-1.027-.49-1.495.255-.512 1.133-.974 2.768-.588 2.206.52 4.898 1.886 7.386 3.747 2.574 1.925 4.692 4.178 5.964 6.342.6 1.02.713 1.978.303 2.563-.366.523-1.122.723-2.074.548-3.787-.695-6.223 1.57-7.24 3.922a8.075 8.075 0 0 0-.6 2.223c-2.08-1.078-4.23-2.076-6.385-3.04zm11.66 7.196c.637.43.978.954.938 1.437-.03.353-.259.651-.628.819-.648.294-1.528.106-2.356-.503-1.165-.859-1.94-2.097-2.238-3.583a6.772 6.772 0 0 1-.114-.822 53.6 53.6 0 0 1 4.399 2.652zM39.97 22.248c1.335.879 1.988 2.04 1.702 3.03-.393 1.363-2.389 2.262-5.41 2.472-1.153-4.344-.156-5.68.353-6.06.277-.207.619-.309 1.01-.309.665 0 1.473.294 2.345.867zm-4.392 6.455s0 0 0 0 0 0 0 0zm0 0l.052.173c.974 3.21 1.009 5.298.108 6.567-.893 1.26-2.78 1.906-6.396 2.154-.98-3.364-.995-5.651-.052-6.975.894-1.256 2.754-1.846 6.029-1.912l.259-.007zm-6.904 9.854l.082.257c.942 2.909.917 4.978-.076 6.327-1.003 1.363-3.033 2.099-6.186 2.235-.985-3.345-1.018-5.616-.104-6.929.967-1.389 3.015-1.751 5.793-1.867l.49-.023zM10.778 55.254c.845-1.706 1.849-3.328 3.188-4.552 1.82-1.662 4.057-2.421 7.046-2.386.276.003.545.002.808-.002l.056.175c1.902 5.881.406 9.595-1.629 11.109-1.709 1.272-3.91 1.216-5.89-.149-1.807-1.246-3.007-2.653-3.579-4.195zm-1.797 11.99c.7-.98 1.398-1.936 2.124-2.895.656-.866 1.466-.88 1.89-.812.646.104 1.196.514 1.368 1.02.135.398.012.816-.358 1.208-1.428 1.518-2.29 2.435-2.909 2.572-.477.106-.988-.236-2.115-1.093zM1.682 77.703h0s0 0 0 0zm0 0a513.537 513.537 0 0 0 4.1-5.875c.935-1.354 1.807-2.617 2.668-3.835 1.23.937 1.961 1.436 2.845 1.24.895-.198 1.777-1.136 3.379-2.839.608-.646.806-1.403.558-2.132-.283-.832-1.103-1.472-2.09-1.631-1.069-.173-2.078.252-2.769 1.164-.726.959-1.424 1.914-2.122 2.892l-.004-.003a60.97 60.97 0 0 0-.414-.31c-1.288-.96-1.556-1.158-1.042-2.266.904-1.95 2.252-4.991 3.131-7.002.111-.254.224-.509.34-.763.722 1.418 1.93 2.729 3.574 3.862 2.284 1.575 4.95 1.625 6.96.13 1.355-1.01 2.277-2.597 2.666-4.59.421-2.156.183-4.736-.689-7.465 3.316-.182 5.498-1.037 6.645-2.595 1.18-1.604 1.25-3.944.21-7.154l-.01-.031c3.263-.235 5.668-.834 6.868-2.526 1.089-1.534 1.1-3.794.034-7.323 3.358-.27 5.531-1.38 6.033-3.119.401-1.39-.396-2.943-2.08-4.05-1.728-1.138-3.335-1.33-4.408-.528-1.354 1.013-1.608 3.42-.74 6.838H35.3c-3.643.074-5.664.761-6.758 2.297-1.108 1.557-1.158 3.977-.14 7.562l-.257.011c-2.46.104-5.194.372-6.509 2.261-1.071 1.54-1.105 3.932-.092 7.476-.17.001-.344 0-.52-.001-3.192-.033-5.702.823-7.676 2.626-1.188 1.085-2.118 2.44-2.904 3.884-.216-1.656.28-3.409 1.41-4.963 5.852-8.047 11.857-16.8 17.664-25.265 1.722-2.509 3.348-4.879 4.964-7.222.094-.136.181-.273.262-.41 1.045.466 2.093.925 3.127 1.378 1.076.47 2.158.944 3.239 1.426.344.315.709.629 1.08.95 1.347 1.16 2.739 2.362 3.403 3.79.737 1.587.461 3.219-.867 5.135-1.352 1.95-3.876 5.567-6.798 9.756-4.648 6.662-9.916 14.212-12.61 18.124l.756.52c2.693-3.909 7.96-11.458 12.607-18.119 2.923-4.19 5.447-7.807 6.8-9.758 2.9-4.185.856-6.92-1.492-9.085a97.329 97.329 0 0 1 3.97 1.96c.002.506.052 1.01.15 1.503.345 1.713 1.242 3.145 2.595 4.14 1.1.81 2.325 1.034 3.28.6.67-.304 1.105-.894 1.162-1.577.07-.824-.418-1.653-1.337-2.274a55.668 55.668 0 0 0-4.914-2.936 7.166 7.166 0 0 1 .566-2.32c.52-1.2 1.33-2.156 2.346-2.763 1.131-.677 2.439-.886 3.886-.62 1.32.243 2.412-.094 2.992-.924.63-.9.534-2.196-.264-3.555C55.7 6.77 49.45 2.051 44.49.881c-2.156-.508-3.377.221-3.8 1.073-.424.851-.132 1.9.725 2.61.81.672 1.732 1.407 2.7 2.167-.27.214-.51.472-.724.775a345.93 345.93 0 0 1-1.624 2.279c-.678.945-1.378 1.923-2.183 3.066-.932 1.325-1.028 2.599-.294 3.894.08.14.167.279.262.415l-1.313-.575c-1.022-.447-2.057-.9-3.089-1.36.444-1.108.456-2.204.021-3.177-.603-1.35-2.022-2.289-3.793-2.513-1.631-.206-2.632.604-2.9 1.498-.248.83.04 2.084 1.672 2.883 1.217.597 2.477 1.181 3.749 1.754a6.136 6.136 0 0 1-.174.266 3613.66 3613.66 0 0 0-4.965 7.225c-5.803 8.46-11.805 17.208-17.649 25.244-1.328 1.827-1.875 3.917-1.539 5.884.052.303.124.603.217.9a47.041 47.041 0 0 0-.708 1.549 417.623 417.623 0 0 1-3.123 6.984c-.827 1.784.03 2.422 1.327 3.388l.407.305.027.02c-.869 1.23-1.748 2.505-2.692 3.872C3.83 73.04 2.474 75.004.934 77.17z"/></g></g></svg>