<svg xmlns="http://www.w3.org/2000/svg" width="75" height="75" viewBox="0 0 75 75"><g><g clip-path="url(#clip-38c8c509-1150-49c3-938f-9bc3e2ed1201)"><path fill="none" stroke="#fff" stroke-miterlimit="20" stroke-width="2" d="M25.992 25.15c0-6.349-.01-12.137-.07-16.688-.064-4.91 2.248-5.73 8.112-5.808 2.987-.038 5.987.059 8.977.06 2.228 0 3.716.371 4.614 1.214.885.83 1.244 2.177 1.222 4.137a249.88 249.88 0 0 0 .03 6.583c.112 7.953.145 10.266-4.944 10.324-5.98.068-11.96.115-17.941.177zm-4.947 23.93c-6.592.224-11.3.31-14.335-.521-2.99-.819-4.199-2.583-4.277-5.646l-.051-1.796c-.31-10.78-.417-14.483 5.482-14.614 4.956-.11 10.975-.19 17.04-.254l-.002 3.93c-.005 12.518-.01 26.426.25 37.108.153 6.293 4.244 6.86 12.136 6.668 2.182-.053 4.364-.147 6.546-.203 6.689-.172 6.582-4.239 6.303-14.854-.02-.77-.042-1.575-.06-2.39-.125-5.381 2.22-6.549 6.751-6.654 3.445-.08 6.993.248 10.461.293 5.672.074 6.537-2.654 6.612-8.405.039-2.973-.07-5.941-.01-8.92.129-6.425-1.844-7.68-8.93-7.822-3.658-.073-7.21.072-10.85.097l.005 1.089c3.63-.026 7.174-.17 10.825-.098 6.235.125 7.972 1.203 7.861 6.713-.059 2.981.05 5.952.01 8.928-.065 5.013-.787 7.392-5.51 7.33-3.481-.046-7.036-.374-10.495-.294-5.248.122-7.965 1.484-7.819 7.765.02.851.04 1.64.06 2.393.259 9.83.358 13.596-5.24 13.74-2.182.057-4.363.151-6.546.204-7.175.175-10.893-.297-11.022-5.606-.26-10.68-.255-24.576-.25-37.081l.002-3.942c5.983-.063 11.966-.11 17.95-.178 6.184-.07 6.148-2.629 6.023-11.425a249.436 249.436 0 0 1-.03-6.562c.026-2.276-.433-3.88-1.563-4.939-1.116-1.047-2.842-1.508-5.361-1.508-2.995-.001-5.998-.099-8.99-.06-6.645.087-9.263 1.062-9.187 6.909.06 4.553.07 10.34.07 16.686-6.078.064-12.106.143-17.061.253-6.998.156-6.883 4.14-6.55 15.733l.051 1.796c.126 3.642 1.51 5.689 5.08 6.666 3.184.87 7.967.786 14.655.559z"/></g></g></svg>