<svg xmlns="http://www.w3.org/2000/svg" width="89" height="76" viewBox="0 0 89 76"><g><g clip-path="url(#clip-22e5e01f-1596-4772-88cf-9c7ae1d1f668)"><path fill="none" stroke="#fff" stroke-linecap="round" stroke-linejoin="round" stroke-miterlimit="20" stroke-width="3" d="M26.908 51.222c18.503 10.231 23.256-7.484 36.637-2.297 9.402 3.644 9.608 12.854 9.608 15.421v9.734H58.74v0-9.543 9.543H37.124v0-14.778V74.08H15.507v0-9.543 9.543H1.095v0-9.734c0-12.107 6.08-16.19 15.317-16.19 8.702 0 12.992-2.343 12.992-7.23A17.338 17.338 0 0 1 21.683 26.5v-5.474c0-20.662 30.882-20.738 30.882 0v2.678c0 13.195-7.008 20.055-14.265 20.055-4.398 0-4.398-5.278 0-5.278 3.25 0 4.832 1.477 7.426 3.247 5.873 4.01 14.781 1.109 14.784-7.22V20.543v0h11.157v0H60.51v0-4.866 0h18.457v0H60.51c0-1.609.196-3.54.557-4.876 0 0 13.028.028 13.033.008.004-.016-13.033-.008-13.033-.008 3.528-12.723 21.958-13.02 25.765-.403 3.82 11.45-7.84 21.164-17.976 16.602l-3.997 4.42v0"/></g></g></svg>