<svg xmlns="http://www.w3.org/2000/svg" width="59" height="74" viewBox="0 0 59 74"><g><g clip-path="url(#clip-76e489d6-31f9-488a-9b42-7962a4f7c26a)"><path fill="none" stroke="#fff" stroke-miterlimit="20" stroke-width="2" d="M20.79 54.058s0 0 0 0 0 0 0 0zm0 0c.307-.619.656-1.272 1.05-1.96 2.053-3.593 4.547-7.607 6.954-11.337 3.437-5.328 6.691-10.075 8.237-12.213.793-1.145 2.624-3.356 4.066-3.694.584-.136.845.106.924.68.143 1.029-.395 2.797-1.859 4.996-1.635 2.456-4.726 6.544-8.234 10.87-3.097 3.821-6.513 7.821-9.534 11.047a35.679 35.679 0 0 1-1.604 1.61zm13.534-35.15c-2.134 2.986-4.186 5.827-6.232 8.66-4.621 6.399-9.216 12.76-13.618 19.195-2.733 3.995-3.786 7.277-3.564 9.39.209 1.983 1.53 3.048 3.514 2.807 1.105-.133 2.457-.684 3.995-1.71-.496 1.67-.589 2.989-.375 3.97.424 1.95 2 2.638 3.855 2.285 2.282-.435 5.265-2.485 7.762-5.914 2.422-3.327 6.005-8.426 9.737-13.737 3.57-5.08 7.273-10.35 10.123-14.308 2.771-3.85.58-6.235-4.608-9.97a215.92 215.92 0 0 0-2.844-2.003c-1.987-1.383-4.263-2.968-6.743-4.842-.776-.586-1.322-1.234-1.665-1.909 1.137.134 2.292.703 3.546 1.415 4.384 2.493 8.344 5.649 12.47 8.537 1.787 1.252 3.484 1.217 4.831.346 1.855-1.2 2.635-3.675 2.709-5.781.133-3.792-1.79-8.487-7.18-11.534C44.873.886 39.983 1.157 36.65 2.852c-2.565 1.304-4.911 3.94-4.365 7.014-1.53.28-3.106 1.321-4.885 3.59-1.744 2.225-8.483 11.34-14.688 20.264-3.826 5.502-7.462 10.95-9.626 14.703-2.182 3.786-2.105 5.324-1.791 11.6.1 2.001.224 4.493.306 7.673.11 4.314 2.232 5.649 6.206 4.24 3.919-1.39 8.016-2.285 11.913-3.78l-.357-.94c-3.89 1.493-7.979 2.385-11.89 3.772-3.32 1.177-4.777.3-4.87-3.315-.083-3.23-.207-5.707-.306-7.698-.303-6.043-.377-7.524 1.658-11.053 2.13-3.697 5.756-9.126 9.582-14.628 6.214-8.936 12.925-18.016 14.654-20.22 1.647-2.103 3.048-3.028 4.372-3.235.383.963 1.087 1.883 2.159 2.694 2.512 1.898 4.787 3.483 6.774 4.866a236.45 236.45 0 0 1 2.832 1.99c4.644 3.344 6.637 5.437 4.38 8.572-2.946 4.091-6.605 9.298-10.13 14.316C34.798 48.652 31.171 53.814 28.85 57c-2.34 3.215-5.077 5.125-7.137 5.518-1.309.249-2.382-.105-2.688-1.512-.234-1.077-.025-2.66.802-4.79 1.037-.828 2.14-1.851 3.297-3.086 3.052-3.259 6.482-7.274 9.581-11.097 3.532-4.356 6.645-8.473 8.294-10.95 1.608-2.417 2.188-4.446 2.016-5.688-.161-1.159-.986-1.792-2.147-1.52-1.82.426-3.59 2.684-4.65 4.085-1.561 2.158-4.833 6.93-8.27 12.258-2.421 3.752-4.927 7.783-6.982 11.38-.846 1.48-1.494 2.813-1.97 4.005-1.869 1.46-3.464 2.21-4.691 2.358-1.424.172-2.248-.487-2.397-1.912-.2-1.9.805-4.936 3.394-8.72 4.432-6.478 9.004-12.808 13.603-19.176 2.106-2.917 4.219-5.842 6.235-8.664zm-1.028-9.12c1.472.036 2.88.71 4.406 1.577 4.423 2.514 8.392 5.677 12.548 8.587 1.405.984 2.704.979 3.712.327 1.558-1.008 2.19-3.216 2.253-4.972.122-3.479-1.664-7.8-6.669-10.63-4.828-2.728-9.365-2.493-12.441-.93-2.183 1.11-4.359 3.396-3.81 6.04"/></g></g></svg>