<svg xmlns="http://www.w3.org/2000/svg" width="89" height="74" viewBox="0 0 89 74"><g><g clip-path="url(#clip-2a8980e2-1c52-4d52-98ca-98942b779d92)"><path fill="#fff" d="M82.744 35.986c7.358-7.535 7.447-20.03 0-27.476-3.957-3.958-9.22-6.097-14.834-6.028-5.567.07-10.825 2.3-14.806 6.281l-.044.044c-9.007 9.007-9.007 24.226 0 33.232l20.104 20.103-3.116 3.116-5.836-5.88a1.112 1.112 0 0 0-1.578 1.567l5.806 5.85c-4.45 3.83-12.293 6.838-25.267 1.564-9.54-3.878-19.526-11.454-27.4-20.786C7.737 38.05 3.002 27.879 2.78 19.668c-.209-7.74 3.391-13.527 10.7-17.209l12.945 12.945c-.627.86-1.664 2.306-2.567 3.67L13.836 9.051a1.112 1.112 0 0 0-1.572 1.573l10.44 10.44-1.037 2.126c-2.802 5.752-.864 14.329 4.715 20.857 3.092 3.619 7.046 6.265 11.433 7.651 4.886 1.544 10.154 1.53 15.668-.042l5.36 5.36a1.112 1.112 0 0 0 1.572-1.573l-5.826-5.827a1.11 1.11 0 0 0-1.112-.277c-14.06 4.3-22.45-3.279-25.404-6.737-4.941-5.782-6.794-13.537-4.406-18.439l1.358-2.789c1.36-2.199 3.73-5.383 3.755-5.415.33-.443.285-1.061-.105-1.452L14.493.327a1.11 1.11 0 0 0-1.26-.22C4.704 4.12.32 10.904.559 19.726c.237 8.834 5.037 19.233 13.515 29.28 8.1 9.599 18.4 17.403 28.263 21.412 4.86 1.976 9.445 2.973 13.658 2.973.572 0 1.137-.019 1.695-.055 5.173-.342 9.59-2.262 13.131-5.707l.013-.013 4.69-4.69a1.112 1.112 0 0 0 0-1.572l-20.89-20.888c-8.155-8.154-8.155-21.933-.001-30.086l.044-.044c3.569-3.57 8.279-5.57 13.262-5.632 5.009-.061 9.703 1.847 13.234 5.378 3.173 3.173 4.92 7.493 4.92 12.165 0 4.671-1.747 8.991-4.92 12.165-4.176 4.176-9.842 5.462-15.3 3.427.184.489-.132.691 0 1.195-.308-.31-.398.399-.398.399.185.183-1.195 0 .797.796 3.983 1.594 11.55.797 16.473-4.244"/></g><g clip-path="url(#clip-2a8980e2-1c52-4d52-98ca-98942b779d92)"><path fill="none" stroke="#fff" stroke-linecap="round" stroke-linejoin="round" stroke-miterlimit="20" stroke-width="2" d="M56.576 17.716c1.162-4.417 7.362.378 7.845-4.594.1-1.017-.23-2.18.04-3.17.581-2.147 2.935-1.348 3.204.604.149 1.08.237 2.162.237 3.214 0-1.614-.74-6.186 1.17-6.85 3.096-1.078 2.31 4.497 2.31 5.977 0-1.424-.01-5.467 3.054-3.935.797.399.37 3.568.399 4.78 0-.702 0-1.593.398-2.39.417-.834 1.195-1.991 2.39-.796 3.148 3.148 1.07 8.47.796 12.348-2.912.504-1.37 6.762-1.867 10.246-3.982 0-7.964 0-12.13-.095V30.34a91.185 91.185 0 0 1 9.821 0h-9.822c0-4.382-1.316-7.913-5.691-9.593-4.85-1.862-7.645.682-3.612 7.135 1.991 3.187 4.78 8.763 11.153 11.153"/></g></g></svg>