<svg xmlns="http://www.w3.org/2000/svg" width="1367" height="241" viewBox="0 0 1367 241"><g><g><path fill="#00a499" d="M0 239.582v-238h1366v238z"/></g><g opacity=".15"><path fill="#fff" d="M1366 3.582v236.001H683c8.63-10.96 18.28-21.066 28.564-30.159 16.407-14.506 34.369-26.726 53.153-37.539 17.667-10.172 36.061-19.098 54.57-27.51 2.484-1.13 4.97-2.249 7.458-3.361A1637.12 1637.12 0 0 1 1154.625 34.2a1632.61 1632.61 0 0 1 126.003-21.653c28.38-3.74 56.849-6.73 85.372-8.965z"/></g><g opacity=".12"><path fill="#fff" d="M1366 0v239.58h-289.147c-8.147-3.854-16.022-8.452-23.546-13.93a137.281 137.281 0 0 1-5.861-4.515c-7.953-6.47-15.205-13.824-21.756-21.89-18.282-22.508-31.117-50.567-38.559-80.478-4.815-19.35-7.37-39.474-7.685-59.374C979.132 39.442 980.8 19.59 983.935 0z"/></g><g opacity=".23"><path fill="#fff" d="M1367 179.424v60.964H0v-51.397c40.808-3.876 84.661-6.786 129.404-9.224 17.068-.93 34.264-1.791 51.47-2.611 119.777-5.71 242.58-9.537 366.378-11.513 8.32-.133 16.644-.257 24.972-.373a12663.955 12663.955 0 0 1 474.643 2.322c54.438 1.29 108.588 2.931 162.298 4.92 24.97.924 49.843 1.924 74.607 2.998a11341.57 11341.57 0 0 1 83.228 3.914z"/></g></g></svg>