<svg xmlns="http://www.w3.org/2000/svg" width="46" height="55" viewBox="0 0 46 55"><g><g clip-path="url(#clip-9473abf8-b914-4258-b0a2-8d315501313a)"><path fill="#fff" d="M33.773 9.634A11.472 11.472 0 0 1 38.39 21.51a11.492 11.492 0 0 1-5.029 7.182 11.484 11.484 0 0 1-10.413.982c-1.762-.705-3.784-1.227-5.674-.752-1.632.41-3.094 1.527-4.553 3.468-1.552 2.066-3.37 4.416-5.168 6.74-1.506 1.947-2.999 3.877-4.34 5.647-1.312 1.73-1.172 3.558-.279 4.984.82 1.31 2.26 2.28 3.78 2.56 1.737.322 3.613-.258 4.869-2.288 1.448-2.341 3.304-5.501 5.108-8.571.815-1.388 1.62-2.758 2.223-3.777 1.285-2.17 2.963-2.404 5.277-2.177 2.091.207 3.741.37 5.911-.013a16.727 16.727 0 0 0 13.428-12.842 16.749 16.749 0 0 0-6.738-17.33 16.738 16.738 0 0 0-18.59-.406 16.773 16.773 0 0 0-7.338 10.479 16.83 16.83 0 0 0 1.596 11.547l-.651.35a17.553 17.553 0 0 1-1.666-12.056 17.512 17.512 0 0 1 7.662-10.943 17.47 17.47 0 0 1 26.446 18.518 17.472 17.472 0 0 1-14.021 13.413c-2.263.4-3.96.232-6.111.02-2.014-.199-3.44-.086-4.568 1.817-.814 1.375-1.514 2.567-2.223 3.773-1.805 3.073-3.662 6.236-5.117 8.586-1.444 2.335-3.615 3-5.63 2.627-1.724-.318-3.342-1.41-4.273-2.896-1.046-1.67-1.213-3.806.313-5.821 1.28-1.688 2.806-3.661 4.347-5.653 1.811-2.342 3.643-4.71 5.162-6.73 1.567-2.086 3.16-3.291 4.965-3.744 2.148-.54 4.12.039 6.129.783a10.755 10.755 0 0 0 9.74-.918 10.753 10.753 0 0 0 4.705-6.718 10.74 10.74 0 0 0-4.32-11.111z"/><path fill="none" stroke="#fff" stroke-miterlimit="20" stroke-width="2" d="M33.773 9.634A11.472 11.472 0 0 1 38.39 21.51a11.492 11.492 0 0 1-5.029 7.182 11.484 11.484 0 0 1-10.413.982c-1.762-.705-3.784-1.227-5.674-.752-1.632.41-3.094 1.527-4.553 3.468-1.552 2.066-3.37 4.416-5.168 6.74-1.506 1.947-2.999 3.877-4.34 5.647-1.312 1.73-1.172 3.558-.279 4.984.82 1.31 2.26 2.28 3.78 2.56 1.737.322 3.613-.258 4.869-2.288 1.448-2.341 3.304-5.501 5.108-8.571.815-1.388 1.62-2.758 2.223-3.777 1.285-2.17 2.963-2.404 5.277-2.177 2.091.207 3.741.37 5.911-.013a16.727 16.727 0 0 0 13.428-12.842 16.749 16.749 0 0 0-6.738-17.33 16.738 16.738 0 0 0-18.59-.406 16.773 16.773 0 0 0-7.338 10.479 16.83 16.83 0 0 0 1.596 11.547l-.651.35a17.553 17.553 0 0 1-1.666-12.056 17.512 17.512 0 0 1 7.662-10.943 17.47 17.47 0 0 1 26.446 18.518 17.472 17.472 0 0 1-14.021 13.413c-2.263.4-3.96.232-6.111.02-2.014-.199-3.44-.086-4.568 1.817-.814 1.375-1.514 2.567-2.223 3.773-1.805 3.073-3.662 6.236-5.117 8.586-1.444 2.335-3.615 3-5.63 2.627-1.724-.318-3.342-1.41-4.273-2.896-1.046-1.67-1.213-3.806.313-5.821 1.28-1.688 2.806-3.661 4.347-5.653 1.811-2.342 3.643-4.71 5.162-6.73 1.567-2.086 3.16-3.291 4.965-3.744 2.148-.54 4.12.039 6.129.783a10.755 10.755 0 0 0 9.74-.918 10.753 10.753 0 0 0 4.705-6.718 10.74 10.74 0 0 0-4.32-11.111z"/></g></g></svg>