<svg xmlns="http://www.w3.org/2000/svg" width="41" height="50" viewBox="0 0 41 50"><g><g clip-path="url(#clip-0757e4a2-d4c3-49ac-9d7f-1e17ff8a1224)"><path fill="none" stroke="#fff" stroke-linecap="round" stroke-linejoin="round" stroke-miterlimit="20" stroke-width="2" d="M17.558 30.34v0l2.552 2.835v0l4.118-5.67a5.203 5.203 0 0 0-4.417-2.744 5.911 5.911 0 0 0-5.912 5.912 6.568 6.568 0 0 0 6.568 6.567 7.298 7.298 0 0 0 7.298-7.298 8.109 8.109 0 0 0-8.109-8.108c-4.975 0-8.902 4.09-8.902 9.065v.028c0 5.496 4.455 9.95 9.95 9.95h15.442v0s-15.469 0 0 0V13.9v0H1.232v34.914H39.32v0V7.55v0H26.624v0h4.76v0l-1.586-3.173v0H23.45a3.174 3.174 0 1 0-6.348 0h-6.348v0L9.167 7.55v0h4.76v0H1.233v3.174h34.914v0"/></g></g></svg>