<svg xmlns="http://www.w3.org/2000/svg" width="48" height="48" viewBox="0 0 48 48"><g><g clip-path="url(#clip-3111a45f-13cd-461f-90d7-528dd662475e)"><path fill="none" stroke="#fff" stroke-linecap="round" stroke-linejoin="round" stroke-miterlimit="20" stroke-width="2" d="M37.395 31.014c5.977 0 9.906 4.993 9.906 12.824V47.3h-9.986v0l-6.657-12.958a14.889 14.889 0 0 1-13.316 0L10.685 47.3v0h21.748v0H.699v0-3.463c0-7.831 3.932-12.824 9.906-12.824h5.073a3.329 3.329 0 0 0 3.33-3.329 11.212 11.212 0 0 1-4.994-9.33v-4.484c0-13.362 19.972-13.412 19.972 0v3.863c0 8.534-4.532 12.97-9.225 12.97-2.845 0-2.845-3.413 0-3.413 2.102 0 3.125.955 4.802 2.1 3.799 2.593 9.56-.837 9.562-6.222V13.026v0H41.4v8.617h-4.55v0-7.531c0-17.826-25.807-17.942-25.807 0v7.53H6.492v0-8.616 0h2.275v6.445"/></g></g></svg>